<svg xmlns="http://www.w3.org/2000/svg" xmlns:xlink="http://www.w3.org/1999/xlink" xmlns:lucid="lucid" width="691" height="451"><g transform="translate(-599 -119)" lucid:page-tab-id="0_0"><path d="M500 0h1000v1000H500z" fill="#fff"/><path d="M620 146a6 6 0 0 1 6-6h637a6 6 0 0 1 6 6v397a6 6 0 0 1-6 6H626a6 6 0 0 1-6-6z" stroke="#00c2a8" stroke-width="2" fill="#d7faf5"/><path d="M620 177.6h649M620 319.9h649" stroke="#00c2a8" stroke-width="2" fill="none"/><use xlink:href="#a" transform="matrix(1,0,0,1,628,148) translate(285.55 14.6)"/><use xlink:href="#b" transform="matrix(1,0,0,1,632,185.6) translate(0 45.5)"/><use xlink:href="#c" transform="matrix(1,0,0,1,632,185.6) translate(29.9 45.5)"/><use xlink:href="#b" transform="matrix(1,0,0,1,632,185.6) translate(0 67.10000000000001)"/><use xlink:href="#d" transform="matrix(1,0,0,1,632,185.6) translate(29.9 67.10000000000001)"/><use xlink:href="#b" transform="matrix(1,0,0,1,632,185.6) translate(0 88.70000000000002)"/><use xlink:href="#e" transform="matrix(1,0,0,1,632,185.6) translate(29.9 88.70000000000002)"/><g><use xlink:href="#f" transform="matrix(1,0,0,1,632,327.9) translate(0 45.300000000000004)"/><use xlink:href="#g" transform="matrix(1,0,0,1,632,327.9) translate(0 66.9)"/><use xlink:href="#h" transform="matrix(1,0,0,1,632,327.9) translate(117.30000000000001 66.9)"/><use xlink:href="#i" transform="matrix(1,0,0,1,632,327.9) translate(0 88.50000000000001)"/><use xlink:href="#j" transform="matrix(1,0,0,1,632,327.9) translate(102.30000000000001 88.50000000000001)"/><use xlink:href="#k" transform="matrix(1,0,0,1,632,327.9) translate(146.25 88.50000000000001)"/><use xlink:href="#l" transform="matrix(1,0,0,1,632,327.9) translate(170.2 88.50000000000001)"/><use xlink:href="#k" transform="matrix(1,0,0,1,632,327.9) translate(230.14999999999998 88.50000000000001)"/><use xlink:href="#m" transform="matrix(1,0,0,1,632,327.9) translate(254.09999999999997 88.50000000000001)"/><use xlink:href="#n" transform="matrix(1,0,0,1,632,327.9) translate(0 110.10000000000002)"/><use xlink:href="#o" transform="matrix(1,0,0,1,632,327.9) translate(34.45 110.10000000000002)"/><use xlink:href="#n" transform="matrix(1,0,0,1,632,327.9) translate(0 131.70000000000002)"/><use xlink:href="#p" transform="matrix(1,0,0,1,632,327.9) translate(34.45 131.70000000000002)"/><use xlink:href="#n" transform="matrix(1,0,0,1,632,327.9) translate(0 153.3)"/><use xlink:href="#q" transform="matrix(1,0,0,1,632,327.9) translate(34.45 153.3)"/><use xlink:href="#r" transform="matrix(1,0,0,1,632,327.9) translate(0 174.9)"/><use xlink:href="#s" transform="matrix(1,0,0,1,632,327.9) translate(48.45 174.9)"/><use xlink:href="#t" transform="matrix(1,0,0,1,632,327.9) translate(155.3 174.9)"/></g><defs><path fill="#3a414a" d="M240 0l2-218c-23 76-54 145-80 218h-23L58-218 59 0H30v-248h44l77 211c21-75 51-140 76-211h43V0h-30" id="u"/><path fill="#3a414a" d="M179-190L93 31C79 59 56 82 12 73V49c39 6 53-20 64-50L1-190h34L92-34l54-156h33" id="v"/><path fill="#3a414a" d="M30-248c118-7 216 8 213 122C240-48 200 0 122 0H30v-248zM63-27c89 8 146-16 146-99s-60-101-146-95v194" id="w"/><path fill="#3a414a" d="M141-36C126-15 110 5 73 4 37 3 15-17 15-53c-1-64 63-63 125-63 3-35-9-54-41-54-24 1-41 7-42 31l-33-3c5-37 33-52 76-52 45 0 72 20 72 64v82c-1 20 7 32 28 27v20c-31 9-61-2-59-35zM48-53c0 20 12 33 32 33 41-3 63-29 60-74-43 2-92-5-92 41" id="x"/><path fill="#3a414a" d="M59-47c-2 24 18 29 38 22v24C64 9 27 4 27-40v-127H5v-23h24l9-43h21v43h35v23H59v120" id="y"/><path fill="#3a414a" d="M100-194c63 0 86 42 84 106H49c0 40 14 67 53 68 26 1 43-12 49-29l28 8c-11 28-37 45-77 45C44 4 14-33 15-96c1-61 26-98 85-98zm52 81c6-60-76-77-97-28-3 7-6 17-6 28h103" id="z"/><g id="a"><use transform="matrix(0.05,0,0,0.05,0,0)" xlink:href="#u"/><use transform="matrix(0.05,0,0,0.05,14.950000000000001,0)" xlink:href="#v"/><use transform="matrix(0.05,0,0,0.05,23.950000000000003,0)" xlink:href="#w"/><use transform="matrix(0.05,0,0,0.05,36.900000000000006,0)" xlink:href="#x"/><use transform="matrix(0.05,0,0,0.05,46.900000000000006,0)" xlink:href="#y"/><use transform="matrix(0.05,0,0,0.05,51.900000000000006,0)" xlink:href="#z"/></g><path d="M16-82v-28h88v28H16" id="A"/><path d="M24-231v-30h32v30H24zM24 0v-190h32V0H24" id="B"/><path d="M117-194c89-4 53 116 60 194h-32v-121c0-31-8-49-39-48C34-167 62-67 57 0H25l-1-190h30c1 10-1 24 2 32 11-22 29-35 61-36" id="C"/><path d="M59-47c-2 24 18 29 38 22v24C64 9 27 4 27-40v-127H5v-23h24l9-43h21v43h35v23H59v120" id="D"/><g id="b"><use transform="matrix(0.05,0,0,0.05,0,0)" xlink:href="#A"/><use transform="matrix(0.05,0,0,0.05,5.95,0)" xlink:href="#B"/><use transform="matrix(0.05,0,0,0.05,9.9,0)" xlink:href="#C"/><use transform="matrix(0.05,0,0,0.05,19.9,0)" xlink:href="#D"/></g><path d="M179-190L93 31C79 59 56 82 12 73V49c39 6 53-20 64-50L1-190h34L92-34l54-156h33" id="E"/><path d="M100-194c63 0 86 42 84 106H49c0 40 14 67 53 68 26 1 43-12 49-29l28 8c-11 28-37 45-77 45C44 4 14-33 15-96c1-61 26-98 85-98zm52 81c6-60-76-77-97-28-3 7-6 17-6 28h103" id="F"/><path d="M141-36C126-15 110 5 73 4 37 3 15-17 15-53c-1-64 63-63 125-63 3-35-9-54-41-54-24 1-41 7-42 31l-33-3c5-37 33-52 76-52 45 0 72 20 72 64v82c-1 20 7 32 28 27v20c-31 9-61-2-59-35zM48-53c0 20 12 33 32 33 41-3 63-29 60-74-43 2-92-5-92 41" id="G"/><path d="M114-163C36-179 61-72 57 0H25l-1-190h30c1 12-1 29 2 39 6-27 23-49 58-41v29" id="H"/><g id="c"><use transform="matrix(0.05,0,0,0.05,0,0)" xlink:href="#E"/><use transform="matrix(0.05,0,0,0.05,9,0)" xlink:href="#F"/><use transform="matrix(0.05,0,0,0.05,19,0)" xlink:href="#G"/><use transform="matrix(0.05,0,0,0.05,29,0)" xlink:href="#H"/></g><path d="M210-169c-67 3-38 105-44 169h-31v-121c0-29-5-50-35-48C34-165 62-65 56 0H25l-1-190h30c1 10-1 24 2 32 10-44 99-50 107 0 11-21 27-35 58-36 85-2 47 119 55 194h-31v-121c0-29-5-49-35-48" id="I"/><path d="M100-194c62-1 85 37 85 99 1 63-27 99-86 99S16-35 15-95c0-66 28-99 85-99zM99-20c44 1 53-31 53-75 0-43-8-75-51-75s-53 32-53 75 10 74 51 75" id="J"/><path d="M106-169C34-169 62-67 57 0H25v-261h32l-1 103c12-21 28-36 61-36 89 0 53 116 60 194h-32v-121c2-32-8-49-39-48" id="K"/><g id="d"><use transform="matrix(0.05,0,0,0.05,0,0)" xlink:href="#I"/><use transform="matrix(0.05,0,0,0.05,14.950000000000001,0)" xlink:href="#J"/><use transform="matrix(0.05,0,0,0.05,24.950000000000003,0)" xlink:href="#C"/><use transform="matrix(0.05,0,0,0.05,34.95,0)" xlink:href="#D"/><use transform="matrix(0.05,0,0,0.05,39.95,0)" xlink:href="#K"/></g><path d="M85-194c31 0 48 13 60 33l-1-100h32l1 261h-30c-2-10 0-23-3-31C134-8 116 4 85 4 32 4 16-35 15-94c0-66 23-100 70-100zm9 24c-40 0-46 34-46 75 0 40 6 74 45 74 42 0 51-32 51-76 0-42-9-74-50-73" id="L"/><g id="e"><use transform="matrix(0.05,0,0,0.05,0,0)" xlink:href="#L"/><use transform="matrix(0.05,0,0,0.05,10,0)" xlink:href="#G"/><use transform="matrix(0.05,0,0,0.05,20,0)" xlink:href="#E"/></g><path d="M118-107v75H92v-75H18v-26h74v-75h26v75h74v26h-74" id="M"/><path d="M240 0l2-218c-23 76-54 145-80 218h-23L58-218 59 0H30v-248h44l77 211c21-75 51-140 76-211h43V0h-30" id="N"/><path d="M30-248c118-7 216 8 213 122C240-48 200 0 122 0H30v-248zM63-27c89 8 146-16 146-99s-60-101-146-95v194" id="O"/><path d="M87 75C49 33 22-17 22-94c0-76 28-126 65-167h31c-38 41-64 92-64 168S80 34 118 75H87" id="P"/><path d="M33-261c38 41 65 92 65 168S71 34 33 75H2C39 34 66-17 66-93S39-220 2-261h31" id="Q"/><g id="f"><use transform="matrix(0.05,0,0,0.05,0,0)" xlink:href="#M"/><use transform="matrix(0.05,0,0,0.05,10.5,0)" xlink:href="#N"/><use transform="matrix(0.05,0,0,0.05,25.450000000000003,0)" xlink:href="#E"/><use transform="matrix(0.05,0,0,0.05,34.45,0)" xlink:href="#O"/><use transform="matrix(0.05,0,0,0.05,47.400000000000006,0)" xlink:href="#G"/><use transform="matrix(0.05,0,0,0.05,57.400000000000006,0)" xlink:href="#D"/><use transform="matrix(0.05,0,0,0.05,62.400000000000006,0)" xlink:href="#F"/><use transform="matrix(0.05,0,0,0.05,72.4,0)" xlink:href="#P"/><use transform="matrix(0.05,0,0,0.05,78.35000000000001,0)" xlink:href="#Q"/></g><path d="M24 0v-261h32V0H24" id="R"/><path d="M177-190C167-65 218 103 67 71c-23-6-38-20-44-43l32-5c15 47 100 32 89-28v-30C133-14 115 1 83 1 29 1 15-40 15-95c0-56 16-97 71-98 29-1 48 16 59 35 1-10 0-23 2-32h30zM94-22c36 0 50-32 50-73 0-42-14-75-50-75-39 0-46 34-46 75s6 73 46 73" id="S"/><g id="g"><use transform="matrix(0.05,0,0,0.05,0,0)" xlink:href="#M"/><use transform="matrix(0.05,0,0,0.05,10.5,0)" xlink:href="#N"/><use transform="matrix(0.05,0,0,0.05,25.450000000000003,0)" xlink:href="#E"/><use transform="matrix(0.05,0,0,0.05,34.45,0)" xlink:href="#O"/><use transform="matrix(0.05,0,0,0.05,47.400000000000006,0)" xlink:href="#G"/><use transform="matrix(0.05,0,0,0.05,57.400000000000006,0)" xlink:href="#D"/><use transform="matrix(0.05,0,0,0.05,62.400000000000006,0)" xlink:href="#F"/><use transform="matrix(0.05,0,0,0.05,72.4,0)" xlink:href="#P"/><use transform="matrix(0.05,0,0,0.05,78.35000000000001,0)" xlink:href="#R"/><use transform="matrix(0.05,0,0,0.05,82.30000000000001,0)" xlink:href="#J"/><use transform="matrix(0.05,0,0,0.05,92.30000000000001,0)" xlink:href="#C"/><use transform="matrix(0.05,0,0,0.05,102.30000000000001,0)" xlink:href="#S"/></g><path d="M115-194c55 1 70 41 70 98S169 2 115 4C84 4 66-9 55-30l1 105H24l-1-265h31l2 30c10-21 28-34 59-34zm-8 174c40 0 45-34 45-75s-6-73-45-74c-42 0-51 32-51 76 0 43 10 73 51 73" id="T"/><path d="M135-143c-3-34-86-38-87 0 15 53 115 12 119 90S17 21 10-45l28-5c4 36 97 45 98 0-10-56-113-15-118-90-4-57 82-63 122-42 12 7 21 19 24 35" id="U"/><path d="M127-220V0H93v-220H8v-28h204v28h-85" id="V"/><g id="h"><use transform="matrix(0.05,0,0,0.05,0,0)" xlink:href="#F"/><use transform="matrix(0.05,0,0,0.05,10,0)" xlink:href="#R"/><use transform="matrix(0.05,0,0,0.05,13.949999999999998,0)" xlink:href="#G"/><use transform="matrix(0.05,0,0,0.05,23.95,0)" xlink:href="#T"/><use transform="matrix(0.05,0,0,0.05,33.95,0)" xlink:href="#U"/><use transform="matrix(0.05,0,0,0.05,42.95,0)" xlink:href="#F"/><use transform="matrix(0.05,0,0,0.05,52.95,0)" xlink:href="#L"/><use transform="matrix(0.05,0,0,0.05,62.95,0)" xlink:href="#V"/><use transform="matrix(0.05,0,0,0.05,73.25,0)" xlink:href="#B"/><use transform="matrix(0.05,0,0,0.05,77.2,0)" xlink:href="#I"/><use transform="matrix(0.05,0,0,0.05,92.15,0)" xlink:href="#F"/><use transform="matrix(0.05,0,0,0.05,102.15,0)" xlink:href="#Q"/></g><g id="i"><use transform="matrix(0.05,0,0,0.05,0,0)" xlink:href="#M"/><use transform="matrix(0.05,0,0,0.05,10.5,0)" xlink:href="#N"/><use transform="matrix(0.05,0,0,0.05,25.450000000000003,0)" xlink:href="#E"/><use transform="matrix(0.05,0,0,0.05,34.45,0)" xlink:href="#O"/><use transform="matrix(0.05,0,0,0.05,47.400000000000006,0)" xlink:href="#G"/><use transform="matrix(0.05,0,0,0.05,57.400000000000006,0)" xlink:href="#D"/><use transform="matrix(0.05,0,0,0.05,62.400000000000006,0)" xlink:href="#F"/><use transform="matrix(0.05,0,0,0.05,72.4,0)" xlink:href="#P"/><use transform="matrix(0.05,0,0,0.05,78.35000000000001,0)" xlink:href="#B"/><use transform="matrix(0.05,0,0,0.05,82.30000000000001,0)" xlink:href="#C"/><use transform="matrix(0.05,0,0,0.05,92.30000000000001,0)" xlink:href="#D"/></g><path d="M68-38c1 34 0 65-14 84H32c9-13 17-26 17-46H33v-38h35" id="W"/><g id="j"><use transform="matrix(0.05,0,0,0.05,0,0)" xlink:href="#E"/><use transform="matrix(0.05,0,0,0.05,9,0)" xlink:href="#F"/><use transform="matrix(0.05,0,0,0.05,19,0)" xlink:href="#G"/><use transform="matrix(0.05,0,0,0.05,29,0)" xlink:href="#H"/><use transform="matrix(0.05,0,0,0.05,33.95,0)" xlink:href="#W"/></g><g id="k"><use transform="matrix(0.05,0,0,0.05,0,0)" xlink:href="#B"/><use transform="matrix(0.05,0,0,0.05,3.95,0)" xlink:href="#C"/><use transform="matrix(0.05,0,0,0.05,13.949999999999998,0)" xlink:href="#D"/></g><g id="l"><use transform="matrix(0.05,0,0,0.05,0,0)" xlink:href="#I"/><use transform="matrix(0.05,0,0,0.05,14.950000000000001,0)" xlink:href="#J"/><use transform="matrix(0.05,0,0,0.05,24.950000000000003,0)" xlink:href="#C"/><use transform="matrix(0.05,0,0,0.05,34.95,0)" xlink:href="#D"/><use transform="matrix(0.05,0,0,0.05,39.95,0)" xlink:href="#K"/><use transform="matrix(0.05,0,0,0.05,49.95,0)" xlink:href="#W"/></g><g id="m"><use transform="matrix(0.05,0,0,0.05,0,0)" xlink:href="#L"/><use transform="matrix(0.05,0,0,0.05,10,0)" xlink:href="#G"/><use transform="matrix(0.05,0,0,0.05,20,0)" xlink:href="#E"/><use transform="matrix(0.05,0,0,0.05,29,0)" xlink:href="#Q"/></g><g id="n"><use transform="matrix(0.05,0,0,0.05,0,0)" xlink:href="#M"/><use transform="matrix(0.05,0,0,0.05,10.5,0)" xlink:href="#B"/><use transform="matrix(0.05,0,0,0.05,14.449999999999998,0)" xlink:href="#C"/><use transform="matrix(0.05,0,0,0.05,24.45,0)" xlink:href="#D"/></g><path d="M137-103V0h-34v-103L8-248h37l75 118 75-118h37" id="X"/><g id="o"><use transform="matrix(0.05,0,0,0.05,0,0)" xlink:href="#S"/><use transform="matrix(0.05,0,0,0.05,10,0)" xlink:href="#F"/><use transform="matrix(0.05,0,0,0.05,20,0)" xlink:href="#D"/><use transform="matrix(0.05,0,0,0.05,25,0)" xlink:href="#X"/><use transform="matrix(0.05,0,0,0.05,35.35,0)" xlink:href="#F"/><use transform="matrix(0.05,0,0,0.05,45.35,0)" xlink:href="#G"/><use transform="matrix(0.05,0,0,0.05,55.35,0)" xlink:href="#H"/><use transform="matrix(0.05,0,0,0.05,61.300000000000004,0)" xlink:href="#P"/><use transform="matrix(0.05,0,0,0.05,67.25,0)" xlink:href="#Q"/></g><g id="p"><use transform="matrix(0.05,0,0,0.05,0,0)" xlink:href="#S"/><use transform="matrix(0.05,0,0,0.05,10,0)" xlink:href="#F"/><use transform="matrix(0.05,0,0,0.05,20,0)" xlink:href="#D"/><use transform="matrix(0.05,0,0,0.05,25,0)" xlink:href="#N"/><use transform="matrix(0.05,0,0,0.05,39.95,0)" xlink:href="#J"/><use transform="matrix(0.05,0,0,0.05,49.95,0)" xlink:href="#C"/><use transform="matrix(0.05,0,0,0.05,59.95,0)" xlink:href="#D"/><use transform="matrix(0.05,0,0,0.05,64.95,0)" xlink:href="#K"/><use transform="matrix(0.05,0,0,0.05,74.95,0)" xlink:href="#P"/><use transform="matrix(0.05,0,0,0.05,80.9,0)" xlink:href="#Q"/></g><g id="q"><use transform="matrix(0.05,0,0,0.05,0,0)" xlink:href="#S"/><use transform="matrix(0.05,0,0,0.05,10,0)" xlink:href="#F"/><use transform="matrix(0.05,0,0,0.05,20,0)" xlink:href="#D"/><use transform="matrix(0.05,0,0,0.05,25,0)" xlink:href="#O"/><use transform="matrix(0.05,0,0,0.05,37.95,0)" xlink:href="#G"/><use transform="matrix(0.05,0,0,0.05,47.95,0)" xlink:href="#E"/><use transform="matrix(0.05,0,0,0.05,56.95,0)" xlink:href="#P"/><use transform="matrix(0.05,0,0,0.05,62.900000000000006,0)" xlink:href="#Q"/></g><path d="M108 0H70L1-190h34L89-25l56-165h34" id="Y"/><g id="r"><use transform="matrix(0.05,0,0,0.05,0,0)" xlink:href="#M"/><use transform="matrix(0.05,0,0,0.05,10.5,0)" xlink:href="#Y"/><use transform="matrix(0.05,0,0,0.05,19.5,0)" xlink:href="#J"/><use transform="matrix(0.05,0,0,0.05,29.5,0)" xlink:href="#B"/><use transform="matrix(0.05,0,0,0.05,33.45,0)" xlink:href="#L"/></g><g id="s"><use transform="matrix(0.05,0,0,0.05,0,0)" xlink:href="#U"/><use transform="matrix(0.05,0,0,0.05,9,0)" xlink:href="#F"/><use transform="matrix(0.05,0,0,0.05,19,0)" xlink:href="#D"/><use transform="matrix(0.05,0,0,0.05,24,0)" xlink:href="#O"/><use transform="matrix(0.05,0,0,0.05,36.95,0)" xlink:href="#G"/><use transform="matrix(0.05,0,0,0.05,46.95,0)" xlink:href="#D"/><use transform="matrix(0.05,0,0,0.05,51.95,0)" xlink:href="#F"/><use transform="matrix(0.05,0,0,0.05,61.95,0)" xlink:href="#P"/><use transform="matrix(0.05,0,0,0.05,67.9,0)" xlink:href="#R"/><use transform="matrix(0.05,0,0,0.05,71.85000000000001,0)" xlink:href="#J"/><use transform="matrix(0.05,0,0,0.05,81.85000000000001,0)" xlink:href="#C"/><use transform="matrix(0.05,0,0,0.05,91.85000000000001,0)" xlink:href="#S"/></g><g id="t"><use transform="matrix(0.05,0,0,0.05,0,0)" xlink:href="#F"/><use transform="matrix(0.05,0,0,0.05,10,0)" xlink:href="#R"/><use transform="matrix(0.05,0,0,0.05,13.949999999999998,0)" xlink:href="#G"/><use transform="matrix(0.05,0,0,0.05,23.95,0)" xlink:href="#T"/><use transform="matrix(0.05,0,0,0.05,33.95,0)" xlink:href="#U"/><use transform="matrix(0.05,0,0,0.05,42.95,0)" xlink:href="#F"/><use transform="matrix(0.05,0,0,0.05,52.95,0)" xlink:href="#L"/><use transform="matrix(0.05,0,0,0.05,62.95,0)" xlink:href="#V"/><use transform="matrix(0.05,0,0,0.05,73.25,0)" xlink:href="#B"/><use transform="matrix(0.05,0,0,0.05,77.2,0)" xlink:href="#I"/><use transform="matrix(0.05,0,0,0.05,92.15,0)" xlink:href="#F"/><use transform="matrix(0.05,0,0,0.05,102.15,0)" xlink:href="#Q"/></g></defs></g></svg>