<svg xmlns="http://www.w3.org/2000/svg" xmlns:xlink="http://www.w3.org/1999/xlink" xmlns:lucid="lucid" width="982" height="601"><g transform="translate(-99 -919)" lucid:page-tab-id="HWEp-vi-RSFO"><path d="M0 500h1500v1000H0z" fill="#fff"/><path d="M120 940h940v559H120z" stroke="#3a414a" stroke-width="2" fill="#edf5ff"/><path d="M120 977.6h940M120 1141h940" stroke="#3a414a" stroke-width="2" fill="none"/><use xlink:href="#a" transform="matrix(1,0,0,1,128,948) translate(398.1 14.6)"/><use xlink:href="#b" transform="matrix(1,0,0,1,132,985.6) translate(0 45.19999999999999)"/><use xlink:href="#c" transform="matrix(1,0,0,1,132,985.6) translate(29.9 45.19999999999999)"/><use xlink:href="#d" transform="matrix(1,0,0,1,132,985.6) translate(0 66.8)"/><use xlink:href="#e" transform="matrix(1,0,0,1,132,985.6) translate(64.9 66.8)"/><use xlink:href="#d" transform="matrix(1,0,0,1,132,985.6) translate(0 88.4)"/><use xlink:href="#f" transform="matrix(1,0,0,1,132,985.6) translate(64.9 88.4)"/><use xlink:href="#d" transform="matrix(1,0,0,1,132,985.6) translate(0 110)"/><use xlink:href="#g" transform="matrix(1,0,0,1,132,985.6) translate(64.9 110)"/><g><use xlink:href="#h" transform="matrix(1,0,0,1,132,1149) translate(0 45.00000000000002)"/><use xlink:href="#i" transform="matrix(1,0,0,1,132,1149) translate(0 66.60000000000002)"/><use xlink:href="#j" transform="matrix(1,0,0,1,132,1149) translate(168.2 66.60000000000002)"/><use xlink:href="#k" transform="matrix(1,0,0,1,132,1149) translate(188.2 66.60000000000002)"/><use xlink:href="#l" transform="matrix(1,0,0,1,132,1149) translate(247.14999999999998 66.60000000000002)"/><use xlink:href="#i" transform="matrix(1,0,0,1,132,1149) translate(0 88.20000000000003)"/><use xlink:href="#j" transform="matrix(1,0,0,1,132,1149) translate(168.2 88.20000000000003)"/><use xlink:href="#k" transform="matrix(1,0,0,1,132,1149) translate(188.2 88.20000000000003)"/><use xlink:href="#m" transform="matrix(1,0,0,1,132,1149) translate(247.14999999999998 88.20000000000003)"/><use xlink:href="#k" transform="matrix(1,0,0,1,132,1149) translate(290.09999999999997 88.20000000000003)"/><use xlink:href="#n" transform="matrix(1,0,0,1,132,1149) translate(349.04999999999995 88.20000000000003)"/><use xlink:href="#k" transform="matrix(1,0,0,1,132,1149) translate(368.04999999999995 88.20000000000003)"/><use xlink:href="#o" transform="matrix(1,0,0,1,132,1149) translate(426.99999999999994 88.20000000000003)"/><use xlink:href="#p" transform="matrix(1,0,0,1,132,1149) translate(0 109.80000000000004)"/><use xlink:href="#q" transform="matrix(1,0,0,1,132,1149) translate(34.45 109.80000000000004)"/><use xlink:href="#r" transform="matrix(1,0,0,1,132,1149) translate(0 131.40000000000003)"/><use xlink:href="#s" transform="matrix(1,0,0,1,132,1149) translate(69.45 131.40000000000003)"/><use xlink:href="#r" transform="matrix(1,0,0,1,132,1149) translate(0 153.00000000000003)"/><use xlink:href="#t" transform="matrix(1,0,0,1,132,1149) translate(69.45 153.00000000000003)"/><use xlink:href="#r" transform="matrix(1,0,0,1,132,1149) translate(0 174.60000000000002)"/><use xlink:href="#u" transform="matrix(1,0,0,1,132,1149) translate(69.45 174.60000000000002)"/><use xlink:href="#v" transform="matrix(1,0,0,1,132,1149) translate(0 196.20000000000002)"/><use xlink:href="#w" transform="matrix(1,0,0,1,132,1149) translate(48.45 196.20000000000002)"/><use xlink:href="#x" transform="matrix(1,0,0,1,132,1149) translate(115.30000000000001 196.20000000000002)"/><use xlink:href="#v" transform="matrix(1,0,0,1,132,1149) translate(0 217.8)"/><use xlink:href="#y" transform="matrix(1,0,0,1,132,1149) translate(48.45 217.8)"/><use xlink:href="#l" transform="matrix(1,0,0,1,132,1149) translate(173.3 217.8)"/><use xlink:href="#v" transform="matrix(1,0,0,1,132,1149) translate(0 239.4)"/><use xlink:href="#z" transform="matrix(1,0,0,1,132,1149) translate(48.45 239.4)"/><use xlink:href="#A" transform="matrix(1,0,0,1,132,1149) translate(149.35000000000002 239.4)"/><use xlink:href="#v" transform="matrix(1,0,0,1,132,1149) translate(0 261)"/><use xlink:href="#B" transform="matrix(1,0,0,1,132,1149) translate(48.45 261)"/><use xlink:href="#o" transform="matrix(1,0,0,1,132,1149) translate(149.35000000000002 261)"/><use xlink:href="#r" transform="matrix(1,0,0,1,132,1149) translate(0 282.59999999999997)"/><use xlink:href="#C" transform="matrix(1,0,0,1,132,1149) translate(69.45 282.59999999999997)"/><use xlink:href="#r" transform="matrix(1,0,0,1,132,1149) translate(0 304.2)"/><use xlink:href="#D" transform="matrix(1,0,0,1,132,1149) translate(69.45 304.2)"/></g><defs><path d="M233-177c-1 41-23 64-60 70L243 0h-38l-65-103H63V0H30v-248c88 3 205-21 203 71zM63-129c60-2 137 13 137-47 0-61-80-42-137-45v92" id="E"/><path d="M100-194c63 0 86 42 84 106H49c0 40 14 67 53 68 26 1 43-12 49-29l28 8c-11 28-37 45-77 45C44 4 14-33 15-96c1-61 26-98 85-98zm52 81c6-60-76-77-97-28-3 7-6 17-6 28h103" id="F"/><path d="M177-190C167-65 218 103 67 71c-23-6-38-20-44-43l32-5c15 47 100 32 89-28v-30C133-14 115 1 83 1 29 1 15-40 15-95c0-56 16-97 71-98 29-1 48 16 59 35 1-10 0-23 2-32h30zM94-22c36 0 50-32 50-73 0-42-14-75-50-75-39 0-46 34-46 75s6 73 46 73" id="G"/><path d="M84 4C-5 8 30-112 23-190h32v120c0 31 7 50 39 49 72-2 45-101 50-169h31l1 190h-30c-1-10 1-25-2-33-11 22-28 36-60 37" id="H"/><path d="M24 0v-261h32V0H24" id="I"/><path d="M141-36C126-15 110 5 73 4 37 3 15-17 15-53c-1-64 63-63 125-63 3-35-9-54-41-54-24 1-41 7-42 31l-33-3c5-37 33-52 76-52 45 0 72 20 72 64v82c-1 20 7 32 28 27v20c-31 9-61-2-59-35zM48-53c0 20 12 33 32 33 41-3 63-29 60-74-43 2-92-5-92 41" id="J"/><path d="M114-163C36-179 61-72 57 0H25l-1-190h30c1 12-1 29 2 39 6-27 23-49 58-41v29" id="K"/><path d="M30-248c87 1 191-15 191 75 0 78-77 80-158 76V0H30v-248zm33 125c57 0 124 11 124-50 0-59-68-47-124-48v98" id="L"/><path d="M100-194c62-1 85 37 85 99 1 63-27 99-86 99S16-35 15-95c0-66 28-99 85-99zM99-20c44 1 53-31 53-75 0-43-8-75-51-75s-53 32-53 75 10 74 51 75" id="M"/><path d="M179-190L93 31C79 59 56 82 12 73V49c39 6 53-20 64-50L1-190h34L92-34l54-156h33" id="N"/><path d="M117-194c89-4 53 116 60 194h-32v-121c0-31-8-49-39-48C34-167 62-67 57 0H25l-1-190h30c1 10-1 24 2 32 11-22 29-35 61-36" id="O"/><g id="a"><use transform="matrix(0.05,0,0,0.05,0,0)" xlink:href="#E"/><use transform="matrix(0.05,0,0,0.05,12.950000000000001,0)" xlink:href="#F"/><use transform="matrix(0.05,0,0,0.05,22.950000000000003,0)" xlink:href="#G"/><use transform="matrix(0.05,0,0,0.05,32.95,0)" xlink:href="#H"/><use transform="matrix(0.05,0,0,0.05,42.95,0)" xlink:href="#I"/><use transform="matrix(0.05,0,0,0.05,46.900000000000006,0)" xlink:href="#J"/><use transform="matrix(0.05,0,0,0.05,56.900000000000006,0)" xlink:href="#K"/><use transform="matrix(0.05,0,0,0.05,62.85,0)" xlink:href="#L"/><use transform="matrix(0.05,0,0,0.05,74.85000000000001,0)" xlink:href="#M"/><use transform="matrix(0.05,0,0,0.05,84.85000000000001,0)" xlink:href="#I"/><use transform="matrix(0.05,0,0,0.05,88.80000000000001,0)" xlink:href="#N"/><use transform="matrix(0.05,0,0,0.05,97.80000000000001,0)" xlink:href="#G"/><use transform="matrix(0.05,0,0,0.05,107.80000000000001,0)" xlink:href="#M"/><use transform="matrix(0.05,0,0,0.05,117.80000000000001,0)" xlink:href="#O"/></g><path d="M16-82v-28h88v28H16" id="P"/><path d="M24-231v-30h32v30H24zM24 0v-190h32V0H24" id="Q"/><path d="M59-47c-2 24 18 29 38 22v24C64 9 27 4 27-40v-127H5v-23h24l9-43h21v43h35v23H59v120" id="R"/><g id="b"><use transform="matrix(0.05,0,0,0.05,0,0)" xlink:href="#P"/><use transform="matrix(0.05,0,0,0.05,5.95,0)" xlink:href="#Q"/><use transform="matrix(0.05,0,0,0.05,9.9,0)" xlink:href="#O"/><use transform="matrix(0.05,0,0,0.05,19.9,0)" xlink:href="#R"/></g><use transform="matrix(0.05,0,0,0.05,0,0)" xlink:href="#O" id="c"/><path d="M85-194c31 0 48 13 60 33l-1-100h32l1 261h-30c-2-10 0-23-3-31C134-8 116 4 85 4 32 4 16-35 15-94c0-66 23-100 70-100zm9 24c-40 0-46 34-46 75 0 40 6 74 45 74 42 0 51-32 51-76 0-42-9-74-50-73" id="S"/><path d="M115-194c53 0 69 39 70 98 0 66-23 100-70 100C84 3 66-7 56-30L54 0H23l1-261h32v101c10-23 28-34 59-34zm-8 174c40 0 45-34 45-75 0-40-5-75-45-74-42 0-51 32-51 76 0 43 10 73 51 73" id="T"/><g id="d"><use transform="matrix(0.05,0,0,0.05,0,0)" xlink:href="#P"/><use transform="matrix(0.05,0,0,0.05,5.95,0)" xlink:href="#S"/><use transform="matrix(0.05,0,0,0.05,15.949999999999998,0)" xlink:href="#M"/><use transform="matrix(0.05,0,0,0.05,25.950000000000003,0)" xlink:href="#H"/><use transform="matrix(0.05,0,0,0.05,35.95,0)" xlink:href="#T"/><use transform="matrix(0.05,0,0,0.05,45.95,0)" xlink:href="#I"/><use transform="matrix(0.05,0,0,0.05,49.900000000000006,0)" xlink:href="#F"/></g><path d="M135-143c-3-34-86-38-87 0 15 53 115 12 119 90S17 21 10-45l28-5c4 36 97 45 98 0-10-56-113-15-118-90-4-57 82-63 122-42 12 7 21 19 24 35" id="U"/><g id="e"><use transform="matrix(0.05,0,0,0.05,0,0)" xlink:href="#U"/><use transform="matrix(0.05,0,0,0.05,9,0)" xlink:href="#Q"/><use transform="matrix(0.05,0,0,0.05,12.949999999999998,0)" xlink:href="#S"/><use transform="matrix(0.05,0,0,0.05,22.95,0)" xlink:href="#F"/></g><path d="M141 0L90-78 38 0H4l68-98-65-92h35l48 74 47-74h35l-64 92 68 98h-35" id="V"/><use transform="matrix(0.05,0,0,0.05,0,0)" xlink:href="#V" id="f"/><use transform="matrix(0.05,0,0,0.05,0,0)" xlink:href="#N" id="g"/><path d="M118-107v75H92v-75H18v-26h74v-75h26v75h74v26h-74" id="W"/><path d="M87 75C49 33 22-17 22-94c0-76 28-126 65-167h31c-38 41-64 92-64 168S80 34 118 75H87" id="X"/><path d="M33-261c38 41 65 92 65 168S71 34 33 75H2C39 34 66-17 66-93S39-220 2-261h31" id="Y"/><g id="h"><use transform="matrix(0.05,0,0,0.05,0,0)" xlink:href="#W"/><use transform="matrix(0.05,0,0,0.05,10.5,0)" xlink:href="#E"/><use transform="matrix(0.05,0,0,0.05,23.450000000000003,0)" xlink:href="#F"/><use transform="matrix(0.05,0,0,0.05,33.45,0)" xlink:href="#G"/><use transform="matrix(0.05,0,0,0.05,43.45,0)" xlink:href="#H"/><use transform="matrix(0.05,0,0,0.05,53.45,0)" xlink:href="#I"/><use transform="matrix(0.05,0,0,0.05,57.400000000000006,0)" xlink:href="#J"/><use transform="matrix(0.05,0,0,0.05,67.4,0)" xlink:href="#K"/><use transform="matrix(0.05,0,0,0.05,73.35000000000001,0)" xlink:href="#L"/><use transform="matrix(0.05,0,0,0.05,85.35000000000001,0)" xlink:href="#M"/><use transform="matrix(0.05,0,0,0.05,95.35000000000001,0)" xlink:href="#I"/><use transform="matrix(0.05,0,0,0.05,99.30000000000001,0)" xlink:href="#N"/><use transform="matrix(0.05,0,0,0.05,108.30000000000001,0)" xlink:href="#G"/><use transform="matrix(0.05,0,0,0.05,118.30000000000001,0)" xlink:href="#M"/><use transform="matrix(0.05,0,0,0.05,128.3,0)" xlink:href="#O"/><use transform="matrix(0.05,0,0,0.05,138.3,0)" xlink:href="#X"/><use transform="matrix(0.05,0,0,0.05,144.25,0)" xlink:href="#Y"/></g><g id="i"><use transform="matrix(0.05,0,0,0.05,0,0)" xlink:href="#W"/><use transform="matrix(0.05,0,0,0.05,10.5,0)" xlink:href="#E"/><use transform="matrix(0.05,0,0,0.05,23.450000000000003,0)" xlink:href="#F"/><use transform="matrix(0.05,0,0,0.05,33.45,0)" xlink:href="#G"/><use transform="matrix(0.05,0,0,0.05,43.45,0)" xlink:href="#H"/><use transform="matrix(0.05,0,0,0.05,53.45,0)" xlink:href="#I"/><use transform="matrix(0.05,0,0,0.05,57.400000000000006,0)" xlink:href="#J"/><use transform="matrix(0.05,0,0,0.05,67.4,0)" xlink:href="#K"/><use transform="matrix(0.05,0,0,0.05,73.35000000000001,0)" xlink:href="#L"/><use transform="matrix(0.05,0,0,0.05,85.35000000000001,0)" xlink:href="#M"/><use transform="matrix(0.05,0,0,0.05,95.35000000000001,0)" xlink:href="#I"/><use transform="matrix(0.05,0,0,0.05,99.30000000000001,0)" xlink:href="#N"/><use transform="matrix(0.05,0,0,0.05,108.30000000000001,0)" xlink:href="#G"/><use transform="matrix(0.05,0,0,0.05,118.30000000000001,0)" xlink:href="#M"/><use transform="matrix(0.05,0,0,0.05,128.3,0)" xlink:href="#O"/><use transform="matrix(0.05,0,0,0.05,138.3,0)" xlink:href="#X"/><use transform="matrix(0.05,0,0,0.05,144.25,0)" xlink:href="#Q"/><use transform="matrix(0.05,0,0,0.05,148.2,0)" xlink:href="#O"/><use transform="matrix(0.05,0,0,0.05,158.2,0)" xlink:href="#R"/></g><path d="M68-38c1 34 0 65-14 84H32c9-13 17-26 17-46H33v-38h35" id="Z"/><g id="j"><use transform="matrix(0.05,0,0,0.05,0,0)" xlink:href="#O"/><use transform="matrix(0.05,0,0,0.05,10,0)" xlink:href="#Z"/></g><g id="k"><use transform="matrix(0.05,0,0,0.05,0,0)" xlink:href="#S"/><use transform="matrix(0.05,0,0,0.05,10,0)" xlink:href="#M"/><use transform="matrix(0.05,0,0,0.05,20,0)" xlink:href="#H"/><use transform="matrix(0.05,0,0,0.05,30,0)" xlink:href="#T"/><use transform="matrix(0.05,0,0,0.05,40,0)" xlink:href="#I"/><use transform="matrix(0.05,0,0,0.05,43.95,0)" xlink:href="#F"/></g><g id="l"><use transform="matrix(0.05,0,0,0.05,0,0)" xlink:href="#U"/><use transform="matrix(0.05,0,0,0.05,9,0)" xlink:href="#Q"/><use transform="matrix(0.05,0,0,0.05,12.949999999999998,0)" xlink:href="#S"/><use transform="matrix(0.05,0,0,0.05,22.95,0)" xlink:href="#F"/><use transform="matrix(0.05,0,0,0.05,32.95,0)" xlink:href="#Y"/></g><g id="m"><use transform="matrix(0.05,0,0,0.05,0,0)" xlink:href="#U"/><use transform="matrix(0.05,0,0,0.05,9,0)" xlink:href="#Q"/><use transform="matrix(0.05,0,0,0.05,12.949999999999998,0)" xlink:href="#S"/><use transform="matrix(0.05,0,0,0.05,22.95,0)" xlink:href="#F"/><use transform="matrix(0.05,0,0,0.05,32.95,0)" xlink:href="#Z"/></g><g id="n"><use transform="matrix(0.05,0,0,0.05,0,0)" xlink:href="#V"/><use transform="matrix(0.05,0,0,0.05,9,0)" xlink:href="#Z"/></g><g id="o"><use transform="matrix(0.05,0,0,0.05,0,0)" xlink:href="#N"/><use transform="matrix(0.05,0,0,0.05,9,0)" xlink:href="#Y"/></g><g id="p"><use transform="matrix(0.05,0,0,0.05,0,0)" xlink:href="#W"/><use transform="matrix(0.05,0,0,0.05,10.5,0)" xlink:href="#Q"/><use transform="matrix(0.05,0,0,0.05,14.449999999999998,0)" xlink:href="#O"/><use transform="matrix(0.05,0,0,0.05,24.45,0)" xlink:href="#R"/></g><path d="M190 0L58-211 59 0H30v-248h39L202-35l-2-213h31V0h-41" id="aa"/><g id="q"><use transform="matrix(0.05,0,0,0.05,0,0)" xlink:href="#G"/><use transform="matrix(0.05,0,0,0.05,10,0)" xlink:href="#F"/><use transform="matrix(0.05,0,0,0.05,20,0)" xlink:href="#R"/><use transform="matrix(0.05,0,0,0.05,25,0)" xlink:href="#aa"/><use transform="matrix(0.05,0,0,0.05,37.95,0)" xlink:href="#X"/><use transform="matrix(0.05,0,0,0.05,43.900000000000006,0)" xlink:href="#Y"/></g><g id="r"><use transform="matrix(0.05,0,0,0.05,0,0)" xlink:href="#W"/><use transform="matrix(0.05,0,0,0.05,10.5,0)" xlink:href="#S"/><use transform="matrix(0.05,0,0,0.05,20.5,0)" xlink:href="#M"/><use transform="matrix(0.05,0,0,0.05,30.5,0)" xlink:href="#H"/><use transform="matrix(0.05,0,0,0.05,40.5,0)" xlink:href="#T"/><use transform="matrix(0.05,0,0,0.05,50.5,0)" xlink:href="#I"/><use transform="matrix(0.05,0,0,0.05,54.45,0)" xlink:href="#F"/></g><path d="M185-189c-5-48-123-54-124 2 14 75 158 14 163 119 3 78-121 87-175 55-17-10-28-26-33-46l33-7c5 56 141 63 141-1 0-78-155-14-162-118-5-82 145-84 179-34 5 7 8 16 11 25" id="ab"/><g id="s"><use transform="matrix(0.05,0,0,0.05,0,0)" xlink:href="#G"/><use transform="matrix(0.05,0,0,0.05,10,0)" xlink:href="#F"/><use transform="matrix(0.05,0,0,0.05,20,0)" xlink:href="#R"/><use transform="matrix(0.05,0,0,0.05,25,0)" xlink:href="#ab"/><use transform="matrix(0.05,0,0,0.05,37,0)" xlink:href="#Q"/><use transform="matrix(0.05,0,0,0.05,40.95,0)" xlink:href="#S"/><use transform="matrix(0.05,0,0,0.05,50.95,0)" xlink:href="#F"/><use transform="matrix(0.05,0,0,0.05,60.95,0)" xlink:href="#X"/><use transform="matrix(0.05,0,0,0.05,66.9,0)" xlink:href="#Y"/></g><path d="M195 0l-74-108L45 0H8l94-129-87-119h37l69 98 67-98h37l-84 118L233 0h-38" id="ac"/><g id="t"><use transform="matrix(0.05,0,0,0.05,0,0)" xlink:href="#G"/><use transform="matrix(0.05,0,0,0.05,10,0)" xlink:href="#F"/><use transform="matrix(0.05,0,0,0.05,20,0)" xlink:href="#R"/><use transform="matrix(0.05,0,0,0.05,25,0)" xlink:href="#ac"/><use transform="matrix(0.05,0,0,0.05,37,0)" xlink:href="#X"/><use transform="matrix(0.05,0,0,0.05,42.95,0)" xlink:href="#Y"/></g><path d="M137-103V0h-34v-103L8-248h37l75 118 75-118h37" id="ad"/><g id="u"><use transform="matrix(0.05,0,0,0.05,0,0)" xlink:href="#G"/><use transform="matrix(0.05,0,0,0.05,10,0)" xlink:href="#F"/><use transform="matrix(0.05,0,0,0.05,20,0)" xlink:href="#R"/><use transform="matrix(0.05,0,0,0.05,25,0)" xlink:href="#ad"/><use transform="matrix(0.05,0,0,0.05,37,0)" xlink:href="#X"/><use transform="matrix(0.05,0,0,0.05,42.95,0)" xlink:href="#Y"/></g><path d="M108 0H70L1-190h34L89-25l56-165h34" id="ae"/><g id="v"><use transform="matrix(0.05,0,0,0.05,0,0)" xlink:href="#W"/><use transform="matrix(0.05,0,0,0.05,10.5,0)" xlink:href="#ae"/><use transform="matrix(0.05,0,0,0.05,19.5,0)" xlink:href="#M"/><use transform="matrix(0.05,0,0,0.05,29.5,0)" xlink:href="#Q"/><use transform="matrix(0.05,0,0,0.05,33.45,0)" xlink:href="#S"/></g><g id="w"><use transform="matrix(0.05,0,0,0.05,0,0)" xlink:href="#U"/><use transform="matrix(0.05,0,0,0.05,9,0)" xlink:href="#F"/><use transform="matrix(0.05,0,0,0.05,19,0)" xlink:href="#R"/><use transform="matrix(0.05,0,0,0.05,24,0)" xlink:href="#aa"/><use transform="matrix(0.05,0,0,0.05,36.95,0)" xlink:href="#X"/><use transform="matrix(0.05,0,0,0.05,42.900000000000006,0)" xlink:href="#Q"/><use transform="matrix(0.05,0,0,0.05,46.85000000000001,0)" xlink:href="#O"/><use transform="matrix(0.05,0,0,0.05,56.85,0)" xlink:href="#R"/></g><g id="x"><use transform="matrix(0.05,0,0,0.05,0,0)" xlink:href="#O"/><use transform="matrix(0.05,0,0,0.05,10,0)" xlink:href="#Y"/></g><g id="y"><use transform="matrix(0.05,0,0,0.05,0,0)" xlink:href="#U"/><use transform="matrix(0.05,0,0,0.05,9,0)" xlink:href="#F"/><use transform="matrix(0.05,0,0,0.05,19,0)" xlink:href="#R"/><use transform="matrix(0.05,0,0,0.05,24,0)" xlink:href="#ab"/><use transform="matrix(0.05,0,0,0.05,36,0)" xlink:href="#Q"/><use transform="matrix(0.05,0,0,0.05,39.95,0)" xlink:href="#S"/><use transform="matrix(0.05,0,0,0.05,49.95,0)" xlink:href="#F"/><use transform="matrix(0.05,0,0,0.05,59.95,0)" xlink:href="#X"/><use transform="matrix(0.05,0,0,0.05,65.9,0)" xlink:href="#S"/><use transform="matrix(0.05,0,0,0.05,75.9,0)" xlink:href="#M"/><use transform="matrix(0.05,0,0,0.05,85.9,0)" xlink:href="#H"/><use transform="matrix(0.05,0,0,0.05,95.9,0)" xlink:href="#T"/><use transform="matrix(0.05,0,0,0.05,105.9,0)" xlink:href="#I"/><use transform="matrix(0.05,0,0,0.05,109.85000000000001,0)" xlink:href="#F"/></g><g id="z"><use transform="matrix(0.05,0,0,0.05,0,0)" xlink:href="#U"/><use transform="matrix(0.05,0,0,0.05,9,0)" xlink:href="#F"/><use transform="matrix(0.05,0,0,0.05,19,0)" xlink:href="#R"/><use transform="matrix(0.05,0,0,0.05,24,0)" xlink:href="#ac"/><use transform="matrix(0.05,0,0,0.05,36,0)" xlink:href="#X"/><use transform="matrix(0.05,0,0,0.05,41.95,0)" xlink:href="#S"/><use transform="matrix(0.05,0,0,0.05,51.95,0)" xlink:href="#M"/><use transform="matrix(0.05,0,0,0.05,61.95,0)" xlink:href="#H"/><use transform="matrix(0.05,0,0,0.05,71.95,0)" xlink:href="#T"/><use transform="matrix(0.05,0,0,0.05,81.95,0)" xlink:href="#I"/><use transform="matrix(0.05,0,0,0.05,85.9,0)" xlink:href="#F"/></g><g id="A"><use transform="matrix(0.05,0,0,0.05,0,0)" xlink:href="#V"/><use transform="matrix(0.05,0,0,0.05,9,0)" xlink:href="#Y"/></g><g id="B"><use transform="matrix(0.05,0,0,0.05,0,0)" xlink:href="#U"/><use transform="matrix(0.05,0,0,0.05,9,0)" xlink:href="#F"/><use transform="matrix(0.05,0,0,0.05,19,0)" xlink:href="#R"/><use transform="matrix(0.05,0,0,0.05,24,0)" xlink:href="#ad"/><use transform="matrix(0.05,0,0,0.05,36,0)" xlink:href="#X"/><use transform="matrix(0.05,0,0,0.05,41.95,0)" xlink:href="#S"/><use transform="matrix(0.05,0,0,0.05,51.95,0)" xlink:href="#M"/><use transform="matrix(0.05,0,0,0.05,61.95,0)" xlink:href="#H"/><use transform="matrix(0.05,0,0,0.05,71.95,0)" xlink:href="#T"/><use transform="matrix(0.05,0,0,0.05,81.95,0)" xlink:href="#I"/><use transform="matrix(0.05,0,0,0.05,85.9,0)" xlink:href="#F"/></g><path d="M210-169c-67 3-38 105-44 169h-31v-121c0-29-5-50-35-48C34-165 62-65 56 0H25l-1-190h30c1 10-1 24 2 32 10-44 99-50 107 0 11-21 27-35 58-36 85-2 47 119 55 194h-31v-121c0-29-5-49-35-48" id="af"/><g id="C"><use transform="matrix(0.05,0,0,0.05,0,0)" xlink:href="#G"/><use transform="matrix(0.05,0,0,0.05,10,0)" xlink:href="#F"/><use transform="matrix(0.05,0,0,0.05,20,0)" xlink:href="#R"/><use transform="matrix(0.05,0,0,0.05,25,0)" xlink:href="#L"/><use transform="matrix(0.05,0,0,0.05,37,0)" xlink:href="#F"/><use transform="matrix(0.05,0,0,0.05,47,0)" xlink:href="#K"/><use transform="matrix(0.05,0,0,0.05,52.95,0)" xlink:href="#Q"/><use transform="matrix(0.05,0,0,0.05,56.900000000000006,0)" xlink:href="#af"/><use transform="matrix(0.05,0,0,0.05,71.85000000000001,0)" xlink:href="#F"/><use transform="matrix(0.05,0,0,0.05,81.85000000000001,0)" xlink:href="#R"/><use transform="matrix(0.05,0,0,0.05,86.85000000000001,0)" xlink:href="#F"/><use transform="matrix(0.05,0,0,0.05,96.85000000000001,0)" xlink:href="#K"/><use transform="matrix(0.05,0,0,0.05,102.80000000000001,0)" xlink:href="#X"/><use transform="matrix(0.05,0,0,0.05,108.75,0)" xlink:href="#Y"/></g><path d="M205 0l-28-72H64L36 0H1l101-248h38L239 0h-34zm-38-99l-47-123c-12 45-31 82-46 123h93" id="ag"/><g id="D"><use transform="matrix(0.05,0,0,0.05,0,0)" xlink:href="#G"/><use transform="matrix(0.05,0,0,0.05,10,0)" xlink:href="#F"/><use transform="matrix(0.05,0,0,0.05,20,0)" xlink:href="#R"/><use transform="matrix(0.05,0,0,0.05,25,0)" xlink:href="#ag"/><use transform="matrix(0.05,0,0,0.05,37,0)" xlink:href="#K"/><use transform="matrix(0.05,0,0,0.05,42.95,0)" xlink:href="#F"/><use transform="matrix(0.05,0,0,0.05,52.95,0)" xlink:href="#J"/><use transform="matrix(0.05,0,0,0.05,62.95,0)" xlink:href="#X"/><use transform="matrix(0.05,0,0,0.05,68.9,0)" xlink:href="#Y"/></g></defs></g></svg>